<svg id="visual" viewBox="0 0 4134 200" width="4134" height="200" xmlns="http://www.w3.org/2000/svg" xmlns:xlink="http://www.w3.org/1999/xlink" version="1.1"><path d="M0 191L30 189C60 187 120 183 179.8 183.3C239.7 183.7 299.3 188.3 359.2 186.7C419 185 479 177 539 177.3C599 177.7 659 186.3 719 187C779 187.7 839 180.3 898.8 180.3C958.7 180.3 1018.3 187.7 1078.2 188.2C1138 188.7 1198 182.3 1258 181C1318 179.7 1378 183.3 1438 182.2C1498 181 1558 175 1617.8 172.7C1677.7 170.3 1737.3 171.7 1797.2 172.7C1857 173.7 1917 174.3 1977 175.7C2037 177 2097 179 2157 179.2C2217 179.3 2277 177.7 2336.8 177C2396.7 176.3 2456.3 176.7 2516.2 177C2576 177.3 2636 177.7 2696 180C2756 182.3 2816 186.7 2876 188.2C2936 189.7 2996 188.3 3055.8 188.3C3115.7 188.3 3175.3 189.7 3235.2 189.5C3295 189.3 3355 187.7 3415 185.5C3475 183.3 3535 180.7 3595 178.2C3655 175.7 3715 173.3 3774.8 175C3834.7 176.7 3894.3 182.3 3954.2 186.7C4014 191 4074 194 4104 195.5L4134 197L4134 0L4104 0C4074 0 4014 0 3954.2 0C3894.3 0 3834.7 0 3774.8 0C3715 0 3655 0 3595 0C3535 0 3475 0 3415 0C3355 0 3295 0 3235.2 0C3175.3 0 3115.7 0 3055.8 0C2996 0 2936 0 2876 0C2816 0 2756 0 2696 0C2636 0 2576 0 2516.2 0C2456.3 0 2396.7 0 2336.8 0C2277 0 2217 0 2157 0C2097 0 2037 0 1977 0C1917 0 1857 0 1797.2 0C1737.3 0 1677.7 0 1617.8 0C1558 0 1498 0 1438 0C1378 0 1318 0 1258 0C1198 0 1138 0 1078.2 0C1018.3 0 958.7 0 898.8 0C839 0 779 0 719 0C659 0 599 0 539 0C479 0 419 0 359.2 0C299.3 0 239.7 0 179.8 0C120 0 60 0 30 0L0 0Z" fill="#413aab"></path><path d="M0 178L30 177.7C60 177.3 120 176.7 179.8 174.8C239.7 173 299.3 170 359.2 168C419 166 479 165 539 164.3C599 163.7 659 163.3 719 164.5C779 165.7 839 168.3 898.8 167.7C958.7 167 1018.3 163 1078.2 162.3C1138 161.7 1198 164.3 1258 165C1318 165.7 1378 164.3 1438 162.2C1498 160 1558 157 1617.8 159.5C1677.7 162 1737.3 170 1797.2 174.5C1857 179 1917 180 1977 177.5C2037 175 2097 169 2157 166.7C2217 164.3 2277 165.7 2336.8 166C2396.7 166.3 2456.3 165.7 2516.2 164C2576 162.3 2636 159.7 2696 161.2C2756 162.7 2816 168.3 2876 167.8C2936 167.3 2996 160.7 3055.8 161.2C3115.7 161.7 3175.3 169.3 3235.2 172.2C3295 175 3355 173 3415 173.8C3475 174.7 3535 178.3 3595 177.3C3655 176.3 3715 170.7 3774.8 166C3834.7 161.3 3894.3 157.7 3954.2 158.7C4014 159.7 4074 165.3 4104 168.2L4134 171L4134 0L4104 0C4074 0 4014 0 3954.2 0C3894.3 0 3834.7 0 3774.8 0C3715 0 3655 0 3595 0C3535 0 3475 0 3415 0C3355 0 3295 0 3235.2 0C3175.3 0 3115.7 0 3055.8 0C2996 0 2936 0 2876 0C2816 0 2756 0 2696 0C2636 0 2576 0 2516.2 0C2456.3 0 2396.7 0 2336.8 0C2277 0 2217 0 2157 0C2097 0 2037 0 1977 0C1917 0 1857 0 1797.2 0C1737.3 0 1677.7 0 1617.8 0C1558 0 1498 0 1438 0C1378 0 1318 0 1258 0C1198 0 1138 0 1078.2 0C1018.3 0 958.7 0 898.8 0C839 0 779 0 719 0C659 0 599 0 539 0C479 0 419 0 359.2 0C299.3 0 239.7 0 179.8 0C120 0 60 0 30 0L0 0Z" fill="#5937a7"></path><path d="M0 149L30 151.2C60 153.3 120 157.7 179.8 159.2C239.7 160.7 299.3 159.3 359.2 155.3C419 151.3 479 144.7 539 146C599 147.3 659 156.7 719 159.5C779 162.3 839 158.7 898.8 154.5C958.7 150.3 1018.3 145.7 1078.2 143.3C1138 141 1198 141 1258 141.2C1318 141.3 1378 141.7 1438 144.5C1498 147.3 1558 152.7 1617.8 157C1677.7 161.3 1737.3 164.7 1797.2 162.5C1857 160.3 1917 152.7 1977 151.5C2037 150.3 2097 155.7 2157 155.2C2217 154.7 2277 148.3 2336.8 148.2C2396.7 148 2456.3 154 2516.2 155.7C2576 157.3 2636 154.7 2696 153.8C2756 153 2816 154 2876 154.7C2936 155.3 2996 155.7 3055.8 156.8C3115.7 158 3175.3 160 3235.2 160C3295 160 3355 158 3415 155.5C3475 153 3535 150 3595 148.5C3655 147 3715 147 3774.8 147C3834.7 147 3894.3 147 3954.2 149.2C4014 151.3 4074 155.7 4104 157.8L4134 160L4134 0L4104 0C4074 0 4014 0 3954.2 0C3894.3 0 3834.7 0 3774.8 0C3715 0 3655 0 3595 0C3535 0 3475 0 3415 0C3355 0 3295 0 3235.2 0C3175.3 0 3115.7 0 3055.8 0C2996 0 2936 0 2876 0C2816 0 2756 0 2696 0C2636 0 2576 0 2516.2 0C2456.3 0 2396.7 0 2336.8 0C2277 0 2217 0 2157 0C2097 0 2037 0 1977 0C1917 0 1857 0 1797.2 0C1737.3 0 1677.7 0 1617.8 0C1558 0 1498 0 1438 0C1378 0 1318 0 1258 0C1198 0 1138 0 1078.2 0C1018.3 0 958.7 0 898.8 0C839 0 779 0 719 0C659 0 599 0 539 0C479 0 419 0 359.2 0C299.3 0 239.7 0 179.8 0C120 0 60 0 30 0L0 0Z" fill="#6b35a3"></path><path d="M0 124L30 125.2C60 126.3 120 128.7 179.8 130.5C239.7 132.3 299.3 133.7 359.2 133.3C419 133 479 131 539 132.3C599 133.7 659 138.3 719 137.3C779 136.3 839 129.7 898.8 128.3C958.7 127 1018.3 131 1078.2 132.7C1138 134.3 1198 133.7 1258 132.3C1318 131 1378 129 1438 129.2C1498 129.3 1558 131.7 1617.8 133.5C1677.7 135.3 1737.3 136.7 1797.2 135C1857 133.3 1917 128.7 1977 129.3C2037 130 2097 136 2157 140.8C2217 145.7 2277 149.3 2336.8 147C2396.7 144.7 2456.3 136.3 2516.2 134.3C2576 132.3 2636 136.7 2696 137.3C2756 138 2816 135 2876 132C2936 129 2996 126 3055.8 125.3C3115.7 124.7 3175.3 126.3 3235.2 129.8C3295 133.3 3355 138.7 3415 141C3475 143.3 3535 142.7 3595 139.3C3655 136 3715 130 3774.8 128C3834.7 126 3894.3 128 3954.2 128.7C4014 129.3 4074 128.7 4104 128.3L4134 128L4134 0L4104 0C4074 0 4014 0 3954.2 0C3894.3 0 3834.7 0 3774.8 0C3715 0 3655 0 3595 0C3535 0 3475 0 3415 0C3355 0 3295 0 3235.2 0C3175.3 0 3115.7 0 3055.8 0C2996 0 2936 0 2876 0C2816 0 2756 0 2696 0C2636 0 2576 0 2516.2 0C2456.3 0 2396.7 0 2336.8 0C2277 0 2217 0 2157 0C2097 0 2037 0 1977 0C1917 0 1857 0 1797.2 0C1737.3 0 1677.7 0 1617.8 0C1558 0 1498 0 1438 0C1378 0 1318 0 1258 0C1198 0 1138 0 1078.2 0C1018.3 0 958.7 0 898.8 0C839 0 779 0 719 0C659 0 599 0 539 0C479 0 419 0 359.2 0C299.3 0 239.7 0 179.8 0C120 0 60 0 30 0L0 0Z" fill="#7b329e"></path><path d="M0 118L30 117.5C60 117 120 116 179.8 116C239.7 116 299.3 117 359.2 118.3C419 119.7 479 121.3 539 123C599 124.7 659 126.3 719 123.8C779 121.3 839 114.7 898.8 113.8C958.7 113 1018.3 118 1078.2 119.5C1138 121 1198 119 1258 116.7C1318 114.3 1378 111.7 1438 112.5C1498 113.3 1558 117.7 1617.8 120.8C1677.7 124 1737.3 126 1797.2 126.2C1857 126.3 1917 124.7 1977 122C2037 119.3 2097 115.7 2157 116C2217 116.3 2277 120.7 2336.8 124C2396.7 127.3 2456.3 129.7 2516.2 128.5C2576 127.3 2636 122.7 2696 122.3C2756 122 2816 126 2876 127C2936 128 2996 126 3055.8 122.2C3115.7 118.3 3175.3 112.7 3235.2 111.2C3295 109.7 3355 112.3 3415 116.7C3475 121 3535 127 3595 130.7C3655 134.3 3715 135.7 3774.8 132.5C3834.7 129.3 3894.3 121.7 3954.2 120.3C4014 119 4074 124 4104 126.5L4134 129L4134 0L4104 0C4074 0 4014 0 3954.2 0C3894.3 0 3834.7 0 3774.8 0C3715 0 3655 0 3595 0C3535 0 3475 0 3415 0C3355 0 3295 0 3235.2 0C3175.3 0 3115.7 0 3055.8 0C2996 0 2936 0 2876 0C2816 0 2756 0 2696 0C2636 0 2576 0 2516.2 0C2456.3 0 2396.7 0 2336.8 0C2277 0 2217 0 2157 0C2097 0 2037 0 1977 0C1917 0 1857 0 1797.2 0C1737.3 0 1677.7 0 1617.8 0C1558 0 1498 0 1438 0C1378 0 1318 0 1258 0C1198 0 1138 0 1078.2 0C1018.3 0 958.7 0 898.8 0C839 0 779 0 719 0C659 0 599 0 539 0C479 0 419 0 359.2 0C299.3 0 239.7 0 179.8 0C120 0 60 0 30 0L0 0Z" fill="#883099"></path><path d="M0 111L30 110.2C60 109.3 120 107.7 179.8 108.2C239.7 108.7 299.3 111.3 359.2 109.2C419 107 479 100 539 97.2C599 94.3 659 95.7 719 96C779 96.3 839 95.7 898.8 96.8C958.7 98 1018.3 101 1078.2 102.3C1138 103.7 1198 103.3 1258 104C1318 104.7 1378 106.3 1438 105.2C1498 104 1558 100 1617.8 98.3C1677.7 96.7 1737.3 97.3 1797.2 100.8C1857 104.3 1917 110.7 1977 114.7C2037 118.7 2097 120.3 2157 119.7C2217 119 2277 116 2336.8 112.5C2396.7 109 2456.3 105 2516.2 105.3C2576 105.7 2636 110.3 2696 110.2C2756 110 2816 105 2876 104.8C2936 104.7 2996 109.3 3055.8 110.7C3115.7 112 3175.3 110 3235.2 107.3C3295 104.7 3355 101.3 3415 101.8C3475 102.3 3535 106.7 3595 108.8C3655 111 3715 111 3774.8 108.2C3834.7 105.3 3894.3 99.7 3954.2 96.5C4014 93.3 4074 92.7 4104 92.3L4134 92L4134 0L4104 0C4074 0 4014 0 3954.2 0C3894.3 0 3834.7 0 3774.8 0C3715 0 3655 0 3595 0C3535 0 3475 0 3415 0C3355 0 3295 0 3235.2 0C3175.3 0 3115.7 0 3055.8 0C2996 0 2936 0 2876 0C2816 0 2756 0 2696 0C2636 0 2576 0 2516.2 0C2456.3 0 2396.7 0 2336.8 0C2277 0 2217 0 2157 0C2097 0 2037 0 1977 0C1917 0 1857 0 1797.2 0C1737.3 0 1677.7 0 1617.8 0C1558 0 1498 0 1438 0C1378 0 1318 0 1258 0C1198 0 1138 0 1078.2 0C1018.3 0 958.7 0 898.8 0C839 0 779 0 719 0C659 0 599 0 539 0C479 0 419 0 359.2 0C299.3 0 239.7 0 179.8 0C120 0 60 0 30 0L0 0Z" fill="#942e94"></path><path d="M0 101L30 99.2C60 97.3 120 93.7 179.8 90.3C239.7 87 299.3 84 359.2 83C419 82 479 83 539 86.5C599 90 659 96 719 97.5C779 99 839 96 898.8 95C958.7 94 1018.3 95 1078.2 92.3C1138 89.7 1198 83.3 1258 83.2C1318 83 1378 89 1438 89.8C1498 90.7 1558 86.3 1617.8 86C1677.7 85.7 1737.3 89.3 1797.2 89.8C1857 90.3 1917 87.7 1977 88.2C2037 88.7 2097 92.3 2157 93.7C2217 95 2277 94 2336.8 91.5C2396.7 89 2456.3 85 2516.2 87C2576 89 2636 97 2696 97.5C2756 98 2816 91 2876 90.3C2936 89.7 2996 95.3 3055.8 96C3115.7 96.7 3175.3 92.3 3235.2 88.5C3295 84.7 3355 81.3 3415 80.7C3475 80 3535 82 3595 85.7C3655 89.3 3715 94.7 3774.8 96.3C3834.7 98 3894.3 96 3954.2 94.8C4014 93.7 4074 93.3 4104 93.2L4134 93L4134 0L4104 0C4074 0 4014 0 3954.2 0C3894.3 0 3834.7 0 3774.8 0C3715 0 3655 0 3595 0C3535 0 3475 0 3415 0C3355 0 3295 0 3235.2 0C3175.3 0 3115.7 0 3055.8 0C2996 0 2936 0 2876 0C2816 0 2756 0 2696 0C2636 0 2576 0 2516.2 0C2456.3 0 2396.7 0 2336.8 0C2277 0 2217 0 2157 0C2097 0 2037 0 1977 0C1917 0 1857 0 1797.2 0C1737.3 0 1677.7 0 1617.8 0C1558 0 1498 0 1438 0C1378 0 1318 0 1258 0C1198 0 1138 0 1078.2 0C1018.3 0 958.7 0 898.8 0C839 0 779 0 719 0C659 0 599 0 539 0C479 0 419 0 359.2 0C299.3 0 239.7 0 179.8 0C120 0 60 0 30 0L0 0Z" fill="#9e2d8e"></path><path d="M0 68L30 69.2C60 70.3 120 72.7 179.8 73C239.7 73.3 299.3 71.7 359.2 71C419 70.3 479 70.7 539 70.2C599 69.7 659 68.3 719 71.5C779 74.7 839 82.3 898.8 85C958.7 87.7 1018.3 85.3 1078.2 85.3C1138 85.3 1198 87.7 1258 88.2C1318 88.7 1378 87.3 1438 85.5C1498 83.7 1558 81.3 1617.8 78C1677.7 74.7 1737.3 70.3 1797.2 72.2C1857 74 1917 82 1977 82.3C2037 82.7 2097 75.3 2157 73.5C2217 71.7 2277 75.3 2336.8 76.7C2396.7 78 2456.3 77 2516.2 77.5C2576 78 2636 80 2696 79C2756 78 2816 74 2876 75.3C2936 76.7 2996 83.3 3055.8 82.7C3115.7 82 3175.3 74 3235.2 70.2C3295 66.3 3355 66.7 3415 69.8C3475 73 3535 79 3595 79.7C3655 80.3 3715 75.7 3774.8 73.3C3834.7 71 3894.3 71 3954.2 70.3C4014 69.7 4074 68.3 4104 67.7L4134 67L4134 0L4104 0C4074 0 4014 0 3954.2 0C3894.3 0 3834.7 0 3774.8 0C3715 0 3655 0 3595 0C3535 0 3475 0 3415 0C3355 0 3295 0 3235.2 0C3175.3 0 3115.7 0 3055.8 0C2996 0 2936 0 2876 0C2816 0 2756 0 2696 0C2636 0 2576 0 2516.2 0C2456.3 0 2396.7 0 2336.8 0C2277 0 2217 0 2157 0C2097 0 2037 0 1977 0C1917 0 1857 0 1797.2 0C1737.3 0 1677.7 0 1617.8 0C1558 0 1498 0 1438 0C1378 0 1318 0 1258 0C1198 0 1138 0 1078.2 0C1018.3 0 958.7 0 898.8 0C839 0 779 0 719 0C659 0 599 0 539 0C479 0 419 0 359.2 0C299.3 0 239.7 0 179.8 0C120 0 60 0 30 0L0 0Z" fill="#a72d89"></path><path d="M0 64L30 63.5C60 63 120 62 179.8 59C239.7 56 299.3 51 359.2 51.8C419 52.7 479 59.3 539 63.7C599 68 659 70 719 67.3C779 64.7 839 57.3 898.8 54C958.7 50.7 1018.3 51.3 1078.2 54.8C1138 58.3 1198 64.7 1258 67.2C1318 69.7 1378 68.3 1438 69.2C1498 70 1558 73 1617.8 73.2C1677.7 73.3 1737.3 70.7 1797.2 66.3C1857 62 1917 56 1977 56C2037 56 2097 62 2157 62.2C2217 62.3 2277 56.7 2336.8 54.5C2396.7 52.3 2456.3 53.7 2516.2 55.3C2576 57 2636 59 2696 58.7C2756 58.3 2816 55.7 2876 58C2936 60.3 2996 67.7 3055.8 67.7C3115.7 67.7 3175.3 60.3 3235.2 58.8C3295 57.3 3355 61.7 3415 64C3475 66.3 3535 66.7 3595 67.8C3655 69 3715 71 3774.8 71.3C3834.7 71.7 3894.3 70.3 3954.2 68.7C4014 67 4074 65 4104 64L4134 63L4134 0L4104 0C4074 0 4014 0 3954.2 0C3894.3 0 3834.7 0 3774.8 0C3715 0 3655 0 3595 0C3535 0 3475 0 3415 0C3355 0 3295 0 3235.2 0C3175.3 0 3115.7 0 3055.8 0C2996 0 2936 0 2876 0C2816 0 2756 0 2696 0C2636 0 2576 0 2516.2 0C2456.3 0 2396.7 0 2336.8 0C2277 0 2217 0 2157 0C2097 0 2037 0 1977 0C1917 0 1857 0 1797.2 0C1737.3 0 1677.7 0 1617.8 0C1558 0 1498 0 1438 0C1378 0 1318 0 1258 0C1198 0 1138 0 1078.2 0C1018.3 0 958.7 0 898.8 0C839 0 779 0 719 0C659 0 599 0 539 0C479 0 419 0 359.2 0C299.3 0 239.7 0 179.8 0C120 0 60 0 30 0L0 0Z" fill="#af2e83"></path><path d="M0 57L30 55.7C60 54.3 120 51.7 179.8 52C239.7 52.3 299.3 55.7 359.2 52.8C419 50 479 41 539 39.2C599 37.3 659 42.7 719 43.3C779 44 839 40 898.8 37.5C958.7 35 1018.3 34 1078.2 37.5C1138 41 1198 49 1258 50.2C1318 51.3 1378 45.7 1438 42.8C1498 40 1558 40 1617.8 41.7C1677.7 43.3 1737.3 46.7 1797.2 49.2C1857 51.7 1917 53.3 1977 53.3C2037 53.3 2097 51.7 2157 51.7C2217 51.7 2277 53.3 2336.8 53.8C2396.7 54.3 2456.3 53.7 2516.2 49.8C2576 46 2636 39 2696 40.2C2756 41.3 2816 50.7 2876 53.3C2936 56 2996 52 3055.8 51.2C3115.7 50.3 3175.3 52.7 3235.2 50C3295 47.3 3355 39.7 3415 40C3475 40.3 3535 48.7 3595 52.7C3655 56.7 3715 56.3 3774.8 56.7C3834.7 57 3894.3 58 3954.2 54C4014 50 4074 41 4104 36.5L4134 32L4134 0L4104 0C4074 0 4014 0 3954.2 0C3894.3 0 3834.7 0 3774.8 0C3715 0 3655 0 3595 0C3535 0 3475 0 3415 0C3355 0 3295 0 3235.2 0C3175.3 0 3115.7 0 3055.8 0C2996 0 2936 0 2876 0C2816 0 2756 0 2696 0C2636 0 2576 0 2516.2 0C2456.3 0 2396.7 0 2336.8 0C2277 0 2217 0 2157 0C2097 0 2037 0 1977 0C1917 0 1857 0 1797.2 0C1737.3 0 1677.7 0 1617.8 0C1558 0 1498 0 1438 0C1378 0 1318 0 1258 0C1198 0 1138 0 1078.2 0C1018.3 0 958.7 0 898.8 0C839 0 779 0 719 0C659 0 599 0 539 0C479 0 419 0 359.2 0C299.3 0 239.7 0 179.8 0C120 0 60 0 30 0L0 0Z" fill="#b7307d"></path><path d="M0 21L30 22.8C60 24.7 120 28.3 179.8 29.5C239.7 30.7 299.3 29.3 359.2 30C419 30.7 479 33.3 539 33.2C599 33 659 30 719 30.2C779 30.3 839 33.7 898.8 31.5C958.7 29.3 1018.3 21.7 1078.2 20.5C1138 19.3 1198 24.7 1258 29C1318 33.3 1378 36.7 1438 36.5C1498 36.3 1558 32.7 1617.8 33.3C1677.7 34 1737.3 39 1797.2 38.2C1857 37.3 1917 30.7 1977 26.7C2037 22.7 2097 21.3 2157 23.7C2217 26 2277 32 2336.8 32.7C2396.7 33.3 2456.3 28.7 2516.2 29.5C2576 30.3 2636 36.7 2696 35.8C2756 35 2816 27 2876 26.7C2936 26.3 2996 33.7 3055.8 36.2C3115.7 38.7 3175.3 36.3 3235.2 37C3295 37.7 3355 41.3 3415 38.8C3475 36.3 3535 27.7 3595 27C3655 26.3 3715 33.7 3774.8 36.5C3834.7 39.3 3894.3 37.7 3954.2 36.5C4014 35.3 4074 34.7 4104 34.3L4134 34L4134 0L4104 0C4074 0 4014 0 3954.2 0C3894.3 0 3834.7 0 3774.8 0C3715 0 3655 0 3595 0C3535 0 3475 0 3415 0C3355 0 3295 0 3235.2 0C3175.3 0 3115.7 0 3055.8 0C2996 0 2936 0 2876 0C2816 0 2756 0 2696 0C2636 0 2576 0 2516.2 0C2456.3 0 2396.7 0 2336.8 0C2277 0 2217 0 2157 0C2097 0 2037 0 1977 0C1917 0 1857 0 1797.2 0C1737.3 0 1677.7 0 1617.8 0C1558 0 1498 0 1438 0C1378 0 1318 0 1258 0C1198 0 1138 0 1078.2 0C1018.3 0 958.7 0 898.8 0C839 0 779 0 719 0C659 0 599 0 539 0C479 0 419 0 359.2 0C299.3 0 239.7 0 179.8 0C120 0 60 0 30 0L0 0Z" fill="#bd3477"></path><path d="M0 4L30 7C60 10 120 16 179.8 15.8C239.7 15.7 299.3 9.3 359.2 8.5C419 7.7 479 12.3 539 16.5C599 20.7 659 24.3 719 23.8C779 23.3 839 18.7 898.8 15.3C958.7 12 1018.3 10 1078.2 11.8C1138 13.7 1198 19.3 1258 21.8C1318 24.3 1378 23.7 1438 20.3C1498 17 1558 11 1617.8 10.7C1677.7 10.3 1737.3 15.7 1797.2 14.8C1857 14 1917 7 1977 5.5C2037 4 2097 8 2157 12.3C2217 16.7 2277 21.3 2336.8 22.5C2396.7 23.7 2456.3 21.3 2516.2 18.8C2576 16.3 2636 13.7 2696 14.8C2756 16 2816 21 2876 23C2936 25 2996 24 3055.8 22C3115.7 20 3175.3 17 3235.2 17.3C3295 17.7 3355 21.3 3415 22.5C3475 23.7 3535 22.3 3595 18.2C3655 14 3715 7 3774.8 7.3C3834.7 7.7 3894.3 15.3 3954.2 15.8C4014 16.3 4074 9.7 4104 6.3L4134 3L4134 0L4104 0C4074 0 4014 0 3954.2 0C3894.3 0 3834.7 0 3774.8 0C3715 0 3655 0 3595 0C3535 0 3475 0 3415 0C3355 0 3295 0 3235.2 0C3175.3 0 3115.7 0 3055.8 0C2996 0 2936 0 2876 0C2816 0 2756 0 2696 0C2636 0 2576 0 2516.2 0C2456.3 0 2396.7 0 2336.8 0C2277 0 2217 0 2157 0C2097 0 2037 0 1977 0C1917 0 1857 0 1797.2 0C1737.3 0 1677.7 0 1617.8 0C1558 0 1498 0 1438 0C1378 0 1318 0 1258 0C1198 0 1138 0 1078.2 0C1018.3 0 958.7 0 898.8 0C839 0 779 0 719 0C659 0 599 0 539 0C479 0 419 0 359.2 0C299.3 0 239.7 0 179.8 0C120 0 60 0 30 0L0 0Z" fill="#c23872"></path></svg>